<svg id="Layer_1" data-name="Layer 1" xmlns="http://www.w3.org/2000/svg" viewBox="0 0 314.27 633.85"><defs><style>.cls-1{fill:#fff;}</style></defs><title>island</title><polyline class="cls-1" points="29.89 33 43.43 22.47 48.03 10.85 48.03 4.43 55.11 0 67.5 2.66 74.14 3.76 79.9 9.52 79.9 14.83 86.31 24.57 90.08 29.43 96.5 33 103.13 33 110 33 116.19 30.54 122.83 25.01 130.13 21.25 134.12 20.58 140.09 22.57 142.97 21.91 146.73 18.81 152.41 16.5 156.03 16.5 156.03 12.39 158.46 10.62 161.78 10.18 165.99 11.95 171.74 19.25 176.61 30.54 178.6 40.72 180.37 51.57 180.37 60.64 180.37 69.72 181.26 76.58 179.05 79.45 176.17 82.77 177.05 85.43 181.26 87.86 185.02 89.41 190.11 91.63 192.99 91.63 194.1 94.28 196.09 97.16 201.84 100.04 206.27 100.04 211.58 100.04 216.89 100.04 217.78 102.03 220.65 106.01 224.19 112.87 226.63 118.18 230.83 121.72 237.92 124.6 245 124.6 251.2 124.6 253.41 125.93 254.74 129.91 258.06 134.12 263.59 135.89 270.67 138.1 275.98 138.1 283.06 139.87 286.83 141.87 291.25 146.51 294.8 150.05 294.8 153.82 297.67 156.47 300.77 158.69 302.76 160.23 305.64 162 309.18 163.78 313.39 166.43 314.27 169.53 314.27 172.63 314.27 176.83 310.29 183.69 305.2 189.89 301.44 196.53 301.66 200.29 302.54 205.6 302.1 211.14 300.11 214.68 297.89 215.78 297.89 220.43 294.8 227.51 291.48 229.51 285.06 232.83 279.52 234.15 277.53 236.59 275.32 243.45 275.32 248.32 275.32 252.97 273.77 256.51 273.77 259.83 275.54 262.93 277.31 268.24 275.98 272 272.88 278.2 270.01 282.18 266.02 285.06 264.25 288.82 262.7 296.57 263.37 301.66 265.58 308.3 264.7 313.83 264.7 316.04 265.58 318.92 266.69 323.79 264.7 327.33 263.15 336.85 262.7 349.02 265.36 355.21 266.91 359.64 267.57 362.3 264.92 366.06 262.26 367.83 262.26 372.92 260.27 380.44 259.83 385.76 260.49 389.08 261.82 393.06 259.38 399.7 258.94 404.35 259.16 409.88 260.05 413.86 261.38 417.63 261.6 420.95 261.6 423.16 262.48 431.13 261.82 441.97 261.82 448.83 261.82 455.25 262.48 458.13 265.14 461.23 267.35 463.88 266.02 466.1 264.48 469.19 262.26 473.62 259.83 477.82 259.61 481.81 260.27 486.46 262.26 492.43 261.82 496.19 261.15 502.39 258.72 507.04 257.61 509.69 253.41 514.34 250.31 518.11 249.87 521.42 247.21 524.97 243.45 532.27 240.35 538.02 239.02 544.44 235.7 549.09 230.61 554.62 226.63 559.05 222.2 564.36 219.33 566.79 217.11 569.45 213.79 574.98 211.58 577.86 207.6 581.62 203.39 585.83 202.28 589.59 201.62 592.47 199.85 596.89 192.99 600.43 190.33 603.98 187.24 607.07 184.14 609.73 180.37 613.71 177.28 615.26 174.4 616.37 172.08 619.25 170.86 623.67 169.53 626.77 167.76 629.65 162.89 632.3 158.24 633.85 154.48 633.85 150.72 633.85 148.5 633.85 147.62 631.42 145.41 628.54 140.76 624.78 137 620.58 133.46 616.37 129.91 614.82 124.38 611.94 121.28 609.51 116.41 603.75 112.43 600.43 110.66 597.12 106.67 595.12 104.46 594.02 100.92 591.8 96.5 589.15 92.73 585.61 89.41 582.51 85.87 578.3 81.67 575.21 80.56 570.56 77.02 565.91 74.36 562.81 73.03 559.05 70.6 553.29 65.07 548.87 61.75 545.77 60.2 543.11 58.21 541.12 57.76 534.92 57.1 527.4 55.33 523.42 52.45 518.33 54.22 511.02 57.98 499.96 63.52 493.54 64.85 488.89 67.72 486.46 70.82 481.37 74.81 477.6 81.22 477.6 88.31 474.73 91.4 469.86 94.28 462.55 98.27 453.04 99.59 443.52 100.26 433.78 102.03 426.92 103.8 418.51 105.13 412.98 106.01 405.45 108.45 403.02 110 399.04 114.42 395.72 117.08 392.84 119.95 390.63 121.5 388.19 123.27 385.98 122.61 373.81 123.05 370.26 126.37 364.07 130.58 358.09 134.78 353.67 134.78 349.02 134.78 344.15 133.68 339.5 134.56 335.74 136.11 331.31 135.22 327.55 135.22 322.24 135.45 315.38 135.22 311.84 134.56 308.07 134.56 300.77 134.78 297.67 135 294.13 132.35 286.61 129.69 281.96 127.7 276.65 126.81 270.23 125.71 267.35 124.6 262.93 123.5 255.62 122.61 249.87 119.73 244.56 117.52 240.57 113.76 238.14 110.88 235.26 108 229.73 102.25 225.74 97.6 220.65 92.95 217.33 90.3 214.01 87.64 210.47 86.53 208.04 83.88 205.38 81.67 202.06 79.01 199.41 77.02 196.53 76.58 193.65 72.81 191.88 66.84 187.9 59.98 183.91 56.88 182.37 53.56 177.72 50.68 173.29 48.03 165.1 44.93 158.69 42.05 155.81 38.29 152.04 34.08 150.72 29.89 148.28 28.11 144.96 27.22 140.76 24.34 138.77 21.47 137.44 18.81 137 16.82 132.13 13.94 129.91 12.17 125.71 12.17 119.95 8.63 114.64 6.86 109.11 6.86 104.91 4.65 99.37 3.76 93.62 3.76 89.63 3.76 85.43 3.76 81 1.99 77.68 1.11 74.36 0 68.83 0 62.63 0 57.1 1.11 53.56 2.43 48.91 2.66 43.82 2.88 38.29 2.88 34.75 3.54 29.66 5.53 26.78 10.62 25.67 13.94 26.11 18.37 27.44 21.47 30.1 21.47 32.53 23.9 33.2 27 33.2"/></svg>